<svg width="39" height="40" viewBox="0 0 39 40" fill="none" xmlns="http://www.w3.org/2000/svg">
<g clip-path="url(#clip0_46_16)">
<path fill-rule="evenodd" clip-rule="evenodd" d="M36.2839 8.02075L22.2633 22.0414L8.24262 8.02075L13.1287 3.13471L18.8083 8.81437V-0.0951316L25.7182 -0.0951322V8.81437L31.3979 3.13471L36.2839 8.02075Z" fill="#02AD6F"/>
<path fill-rule="evenodd" clip-rule="evenodd" d="M31.4406 31.2183L17.4199 17.1976L31.4405 3.17694L36.3266 8.06299L30.6469 13.7426L39.5564 13.7426L39.5564 20.6526L30.6469 20.6526L36.3266 26.3322L31.4406 31.2183Z" fill="#02AD6F"/>
<path d="M18.764 13.397H5.19967V20.2127H16.7294C6.87508 22.0911 0.90429 34.0639 0 40.0001H8.13861C8.9689 36.0725 13.5482 27.4749 18.764 26.8085V34.4722H25.5462V20.2127C25.5462 20.2127 25.8737 17.1974 23.9086 15.2972C21.9435 13.397 18.764 13.397 18.764 13.397Z" fill="white"/>
</g>
<defs>
<clipPath id="clip0_46_16">
<rect width="39" height="40" fill="white"/>
</clipPath>
</defs>
</svg>
